# xmcd CD database file
#
# Track frame offsets:
#	150
#	20405
#	41207
#	61780
#	93072
#	111395
#	163590
#	179402
#	196892
#	206980
#	226120
#	232645
#	287552
#	304172
#
# Disc length: 4394 seconds
#
# Revision: 0
# Processed by: cddbd v1.4PL0 Copyright (c) Steve Scherf et al.
# Submitted via: CDex 1.50beta10
#
DISCID=b411280e
DTITLE=Pablo Bobrowicky - South of the world
DYEAR=1997
DGENRE=Jazz
TTITLE0=Straight no chaser
TTITLE1=De Buenos Aires a Rio
TTITLE2=Escape
TTITLE3=Algunos cambios
TTITLE4=Casinha pequenina
TTITLE5=Tierra, aire y fuego
TTITLE6=Maxi cuore
TTITLE7=Well you needn't
TTITLE8=Anike'
TTITLE9=Casi seguro
TTITLE10=Blues para Adamo
TTITLE11=Imagino Salgueiro
TTITLE12=Luli
TTITLE13=Max... who?
EXTD=YEAR: 1997
EXTT0=
EXTT1=
EXTT2=
EXTT3=
EXTT4=
EXTT5=
EXTT6=
EXTT7=
EXTT8=
EXTT9=
EXTT10=
EXTT11=
EXTT12=
EXTT13=
PLAYORDER=
